HIERARCHY
ROOT Hips
{
	OFFSET 0.00000 0.00000 0.00000
	CHANNELS 6 Xposition Yposition Zposition Zrotation Yrotation Xrotation 
	JOINT LHipJoint
	{
		OFFSET 0 0 0
		CHANNELS 3 Zrotation Yrotation Xrotation
		JOINT LeftUpLeg
		{
			OFFSET 1.58895 -1.83665 0.71753
			CHANNELS 3 Zrotation Yrotation Xrotation
			JOINT LeftLeg
			{
				OFFSET 2.50528 -6.88321 0.00000
				CHANNELS 3 Zrotation Yrotation Xrotation
				JOINT LeftFoot
				{
					OFFSET 2.63244 -7.23257 0.00000
					CHANNELS 3 Zrotation Yrotation Xrotation
					JOINT LeftToeBase
					{
						OFFSET 0.23691 -0.65090 1.72750
						CHANNELS 3 Zrotation Yrotation Xrotation
						End Site
						{
							OFFSET 0.00000 -0.00000 0.92561
						}
					}
				}
			}
		}
	}
	JOINT RHipJoint
	{
		OFFSET 0 0 0
		CHANNELS 3 Zrotation Yrotation Xrotation
		JOINT RightUpLeg
		{
			OFFSET -1.51435 -1.83665 0.71753
			CHANNELS 3 Zrotation Yrotation Xrotation
			JOINT RightLeg
			{
				OFFSET -2.54551 -6.99375 0.00000
				CHANNELS 3 Zrotation Yrotation Xrotation
				JOINT RightFoot
				{
					OFFSET -2.66027 -7.30903 0.00000
					CHANNELS 3 Zrotation Yrotation Xrotation
					JOINT RightToeBase
					{
						OFFSET -0.22981 -0.63138 2.03959
						CHANNELS 3 Zrotation Yrotation Xrotation
						End Site
						{
							OFFSET -0.00000 -0.00000 1.07060
						}
					}
				}
			}
		}
	}
	JOINT LowerBack
	{
		OFFSET 0 0 0
		CHANNELS 3 Zrotation Yrotation Xrotation
		JOINT Spine
		{
			OFFSET -0.02651 1.86275 -0.11152
			CHANNELS 3 Zrotation Yrotation Xrotation
			JOINT Spine1
			{
				OFFSET 0.01019 1.86224 0.04087
				CHANNELS 3 Zrotation Yrotation Xrotation
				JOINT Neck
				{
					OFFSET 0 0 0
					CHANNELS 3 Zrotation Yrotation Xrotation
					JOINT Neck1
					{
						OFFSET -0.01926 1.80512 0.08867
						CHANNELS 3 Zrotation Yrotation Xrotation
						JOINT Head
						{
							OFFSET 0.05516 1.76451 -0.38475
							CHANNELS 3 Zrotation Yrotation Xrotation
							End Site
							{
								OFFSET 0.01592 1.82587 -0.14001
							}
						}
					}
				}
				JOINT LeftShoulder
				{
					OFFSET 0 0 0
					CHANNELS 3 Zrotation Yrotation Xrotation
					JOINT LeftArm
					{
						OFFSET 3.47116 1.51376 0.14491
						CHANNELS 3 Zrotation Yrotation Xrotation
						JOINT LeftForeArm
						{
							OFFSET 4.78095 -0.00000 0.00000
							CHANNELS 3 Zrotation Yrotation Xrotation
							JOINT LeftHand
							{
								OFFSET 3.58615 -0.00000 -0.00000
								CHANNELS 3 Zrotation Yrotation Xrotation
								JOINT LeftFingerBase
								{
									OFFSET 0 0 0
									CHANNELS 3 Zrotation Yrotation Xrotation
									JOINT LeftHandIndex1
									{
										OFFSET 0.65981 -0.00000 0.00000
										CHANNELS 3 Zrotation Yrotation Xrotation
										End Site
										{
											OFFSET 0.53196 -0.00000 0.00000
										}
									}
								}
								JOINT LThumb
								{
									OFFSET 0 0 0
									CHANNELS 3 Zrotation Yrotation Xrotation
									End Site
									{
										OFFSET 0.54008 -0.00000 0.54008
									}
								}
							}
						}
					}
				}
				JOINT RightShoulder
				{
					OFFSET 0 0 0
					CHANNELS 3 Zrotation Yrotation Xrotation
					JOINT RightArm
					{
						OFFSET -3.31725 1.61216 0.35156
						CHANNELS 3 Zrotation Yrotation Xrotation
						JOINT RightForeArm
						{
							OFFSET -4.48913 -0.00000 0.00000
							CHANNELS 3 Zrotation Yrotation Xrotation
							JOINT RightHand
							{
								OFFSET -3.70510 -0.00000 0.00000
								CHANNELS 3 Zrotation Yrotation Xrotation
								JOINT RightFingerBase
								{
									OFFSET 0 0 0
									CHANNELS 3 Zrotation Yrotation Xrotation
									JOINT RightHandIndex1
									{
										OFFSET -0.44914 -0.00000 0.00000
										CHANNELS 3 Zrotation Yrotation Xrotation
										End Site
										{
											OFFSET -0.36211 -0.00000 0.00000
										}
									}
								}
								JOINT RThumb
								{
									OFFSET 0 0 0
									CHANNELS 3 Zrotation Yrotation Xrotation
									End Site
									{
										OFFSET -0.36763 -0.00000 0.36763
									}
								}
							}
						}
					}
				}
			}
		}
	}
}
MOTION
Frames: 15
Frame Time: .0083333
-1.0972 18.051 5.9319 0 0 0 0 0 0 -21 0 0 0 0 0 0 0 0 0 0 0 0 0 0 21 0 0 0 0 0 0 0 0 0 0 0 0 0 0 0 0 0 0 0 0 0 0 -16 0 0 21 0 0 11 0 0 0 -8 0 0 0 0 0 0 0 0 0 0 0 0 0 0 0 0 0 0 0 0 8 0 0 0 0 0 0 0 0 0 0 0 0 0 0 0 0 0
-1.0972 18.0510 5.9319 -2.7109 -5.3167 -4.0163 0.0000 0.0000 0.0000 -14.2606 -4.6551 24.2412 0.5178 -4.6120 -12.8052 -0.7888 17.9473 -16.4151 0.0763 -1.7825 -4.9049 0.0000 0.0000 0.0000 17.7575 -3.6217 16.7119 -0.1484 2.4824 -6.8408 -0.6841 -7.1058 -19.7917 -0.1090 -2.1287 5.8615 1.0486 1.4306 2.9859 0.6898 1.9636 -0.6295 0.0236 0.9700 -2.3081 0.3531 -0.8761 -12.1260 0.7114 -1.4389 19.3033 0.0271 -0.5905 7.9697 -0.0000 0.0000 0.0000 -90.7946 11.8900 23.5348 22.7039 -33.7634 -6.9730 -0.0000 0.0000 -0.1173 9.5724 -26.3406 -4.2793 -7.1250 0.0000 -0.0000 -12.2074 3.8301 11.6367 -0.0000 0.0000 0.0000 91.7633 -19.7435 17.1878 -27.9294 39.0511 -10.0792 0.0000 0.0000 9.9960 -10.3153 -27.7221 4.8395 7.1250 -0.0000 -0.0000 21.9036 -56.7137 -6.5043
-1.0988 18.0511 5.9242 -2.6559 -5.2866 -4.0338 0.0000 0.0000 0.0000 -14.2809 -4.5640 24.1704 0.5178 -4.6121 -12.8054 -0.7859 17.8775 -16.2897 0.0794 -1.8173 -5.0009 0.0000 0.0000 0.0000 17.7020 -3.6443 16.6982 -0.1487 2.4849 -6.8479 -0.6802 -7.1178 -19.7615 -0.1036 -2.0758 5.7153 0.9504 1.4419 3.0206 0.6852 1.9752 -0.6105 0.0724 0.9771 -2.3111 0.2672 -0.9446 -12.2297 0.7143 -1.5183 19.4048 0.0333 -0.6333 8.0230 -0.0000 0.0000 0.0000 -91.1510 12.5361 23.7883 24.0663 -35.2343 -7.7448 -0.0000 -0.0000 0.0364 8.9550 -25.9581 -3.9457 -7.1250 0.0000 -0.0000 -12.5641 4.2744 11.8877 -0.0000 0.0000 0.0000 91.8106 -19.6812 17.6043 -27.9947 39.1113 -10.1203 0.0000 0.0000 9.8593 -10.2751 -27.5690 4.7959 7.1250 -0.0000 -0.0000 21.8412 -56.5641 -6.4042
-1.1008 18.0525 5.9165 -2.7203 -5.2682 -4.0372 0.0000 0.0000 0.0000 -14.1365 -4.3759 24.0963 0.5225 -4.6325 -12.8632 -0.7829 17.7550 -16.0341 0.0888 -1.9221 -5.2905 0.0000 0.0000 0.0000 17.7926 -3.6399 16.5995 -0.1425 2.4325 -6.7026 -0.6836 -7.0918 -19.7748 -0.0955 -1.9926 5.4852 0.9784 1.4569 3.0685 0.7049 1.9971 -0.5955 0.0749 0.9878 -2.3222 0.2261 -0.9591 -12.2212 0.7419 -1.5351 19.3875 0.0476 -0.6416 8.0163 -0.0000 0.0000 0.0000 -91.0745 11.9857 24.7773 23.2003 -34.3071 -7.2509 -0.0000 0.0000 -0.5355 9.2886 -26.7461 -4.2097 -7.1250 0.0000 -0.0000 -12.3909 3.4649 11.9058 -0.0000 0.0000 0.0000 91.8964 -19.5874 17.9116 -27.9644 39.0834 -10.1012 0.0000 0.0000 9.9018 -9.2852 -27.9695 4.3847 7.1250 -0.0000 -0.0000 23.1031 -56.7297 -6.8961
-1.1029 18.0534 5.9086 -2.8053 -5.2248 -4.0486 0.0000 0.0000 0.0000 -14.0051 -4.3249 24.0668 0.5245 -4.6412 -12.8880 -0.7826 17.6976 -15.8941 0.0985 -2.0235 -5.5707 0.0000 0.0000 0.0000 17.8952 -3.6778 16.5445 -0.1395 2.4074 -6.6330 -0.6841 -7.0929 -19.7809 -0.0965 -2.0029 5.5137 1.0415 1.4633 3.1378 0.7123 2.0093 -0.5871 0.0447 0.9929 -2.3506 0.2501 -0.9786 -12.1868 0.7404 -1.5663 19.3645 0.0401 -0.6550 8.0024 0.0000 0.0000 0.0000 -91.1857 11.9742 25.2998 23.2721 -34.3850 -7.2914 -0.0000 0.0000 -0.6200 9.3037 -26.7868 -4.2225 -7.1250 0.0000 -0.0000 -12.3834 3.4233 11.9079 0.0000 0.0000 0.0000 92.0329 -19.4914 18.1453 -27.8492 38.9770 -10.0287 0.0000 0.0000 10.0019 -7.2869 -28.7136 3.5154 7.1250 -0.0000 -0.0000 25.6219 -56.9908 -7.8806
-1.1044 18.0543 5.9020 -2.8070 -5.1568 -4.0483 0.0000 0.0000 0.0000 -13.9739 -4.3075 24.0320 0.5276 -4.6547 -12.9264 -0.7819 17.6520 -15.7898 0.1032 -2.0712 -5.7023 0.0000 0.0000 0.0000 17.9009 -3.7199 16.4581 -0.1356 2.3732 -6.5381 -0.6899 -7.0531 -19.8083 -0.1009 -2.0484 5.6396 1.0173 1.4612 3.1720 0.6979 2.0059 -0.5903 0.0427 0.9913 -2.3735 0.2465 -1.0148 -12.1136 0.7717 -1.6213 19.3333 0.0458 -0.6788 7.9792 -0.0000 -0.0000 0.0000 -91.3295 11.9622 25.6879 23.2328 -34.3424 -7.2692 -0.0000 0.0000 -0.5370 9.3768 -26.7956 -4.2575 -7.1250 0.0000 -0.0000 -12.3403 3.4062 11.8684 -0.0000 -0.0000 0.0000 92.1510 -19.4341 18.4329 -27.6667 38.8076 -9.9141 0.0000 0.0000 10.0249 -6.6222 -28.8583 3.2071 7.1250 -0.0000 -0.0000 26.3864 -56.9822 -8.1332
-1.1059 18.0548 5.8961 -2.7913 -5.0883 -4.0600 0.0000 0.0000 0.0000 -13.9421 -4.2127 23.9624 0.5286 -4.6589 -12.9383 -0.7741 17.5385 -15.6384 0.1002 -2.0412 -5.6194 0.0000 0.0000 0.0000 17.8879 -3.7764 16.4135 -0.1338 2.3577 -6.4954 -0.6898 -7.0477 -19.8028 -0.0981 -2.0196 5.5597 0.9610 1.4481 3.2164 0.6941 1.9867 -0.5936 0.0699 0.9824 -2.4036 0.1878 -1.0580 -12.0458 0.8207 -1.6785 19.3135 0.0663 -0.7059 7.9615 -0.0000 0.0000 0.0000 -91.5528 11.9663 25.7995 23.1213 -34.2212 -7.2064 -0.0000 0.0000 -0.2108 9.1394 -26.8481 -4.1556 -7.1250 0.0000 -0.0000 -12.4831 3.3819 12.0184 -0.0000 0.0000 0.0000 92.2007 -19.4152 18.8154 -27.4492 38.6042 -9.7781 0.0000 0.0000 10.0117 -7.2449 -28.6723 3.4904 7.1250 -0.0000 -0.0000 25.6329 -56.9453 -7.8555
-1.1079 18.0548 5.8886 -2.8171 -5.0053 -4.0801 0.0000 0.0000 0.0000 -13.8617 -4.1174 23.8811 0.5271 -4.6524 -12.9198 -0.7617 17.3919 -15.4856 0.1044 -2.0832 -5.7357 0.0000 0.0000 0.0000 17.9129 -3.8681 16.4153 -0.1349 2.3677 -6.5231 -0.6853 -7.0789 -19.7822 -0.0930 -1.9671 5.4146 0.9567 1.4300 3.3153 0.6902 1.9639 -0.6038 0.0666 0.9707 -2.4698 0.2086 -1.0755 -12.0023 0.7804 -1.6982 19.3017 0.0478 -0.7180 7.9492 0.0000 -0.0000 0.0000 -91.7304 11.9793 25.9167 22.9562 -34.0409 -7.1138 -0.0000 -0.0000 0.0702 8.8827 -26.8321 -4.0352 -7.1250 0.0000 -0.0000 -12.6347 3.4268 12.1613 0.0000 -0.0000 0.0000 92.2667 -19.3993 19.1750 -27.1999 38.3692 -9.6229 0.0000 0.0000 9.9931 -7.7736 -28.6037 3.7393 7.1250 -0.0000 -0.0000 25.0588 -56.9931 -7.6933
-1.1093 18.0556 5.8821 -2.7990 -4.9104 -4.0735 0.0000 0.0000 0.0000 -13.8468 -4.0755 23.7930 0.5261 -4.6482 -12.9078 -0.7534 17.2850 -15.3635 0.1142 -2.1783 -5.9988 0.0000 0.0000 0.0000 17.8849 -3.9563 16.3889 -0.1360 2.3766 -6.5477 -0.6849 -7.0889 -19.7862 -0.0900 -1.9344 5.3244 0.9307 1.4201 3.3596 0.6648 1.9497 -0.6035 0.0545 0.9636 -2.4945 0.2851 -1.0863 -11.9419 0.6710 -1.7048 19.2366 -0.0011 -0.7268 7.9150 -0.0000 -0.0000 0.0000 -91.8192 11.9080 26.1766 22.6782 -33.7350 -6.9587 -0.0000 -0.0000 0.3168 8.8208 -26.7912 -4.0011 -7.1250 0.0000 -0.0000 -12.6701 3.4737 12.1859 -0.0000 -0.0000 0.0000 92.3547 -19.3408 19.4317 -26.9255 38.1080 -9.4531 0.0000 0.0000 10.1044 -8.0506 -28.3863 3.8470 7.1250 -0.0000 -0.0000 24.6261 -56.8545 -7.4648
-1.1101 18.0567 5.8787 -2.7527 -4.8437 -4.0549 0.0000 0.0000 0.0000 -13.8718 -4.0449 23.7189 0.5261 -4.6483 -12.9081 -0.7511 17.2276 -15.2567 0.1131 -2.1681 -5.9706 0.0000 0.0000 0.0000 17.8321 -4.0068 16.3450 -0.1359 2.3760 -6.5460 -0.6843 -7.0878 -19.7793 -0.0868 -1.9007 5.2314 0.8725 1.4130 3.3240 0.6439 1.9365 -0.5833 0.0677 0.9579 -2.4549 0.2971 -1.1101 -11.8813 0.6174 -1.7277 19.1749 -0.0226 -0.7426 7.8830 0.0000 -0.0000 0.0000 -91.9132 11.7824 26.3718 22.2966 -33.3106 -6.7480 -0.0000 -0.0000 0.6968 8.8419 -26.8397 -4.0175 -7.1250 0.0000 -0.0000 -12.6591 3.4238 12.1867 0.0000 -0.0000 0.0000 92.4124 -19.2619 19.6065 -26.6367 37.8305 -9.2754 0.0000 0.0000 10.5661 -7.9225 -28.1697 3.7587 7.1250 -0.0000 -0.0000 24.5980 -56.6328 -7.3210
-1.1110 18.0572 5.8762 -2.7488 -4.8122 -4.0481 0.0000 0.0000 0.0000 -13.8597 -4.0324 23.6811 0.5257 -4.6464 -12.9027 -0.7514 17.2028 -15.1861 0.1124 -2.1613 -5.9515 0.0000 0.0000 0.0000 17.8287 -4.0320 16.3213 -0.1359 2.3759 -6.5456 -0.6833 -7.0982 -19.7778 -0.0869 -1.9008 5.2317 0.8484 1.4082 3.3081 0.6421 1.9287 -0.5713 0.0804 0.9545 -2.4344 0.2747 -1.1226 -11.8514 0.6104 -1.7388 19.1768 -0.0221 -0.7503 7.8783 0.0000 -0.0000 0.0000 -92.0359 11.6966 26.4435 21.8691 -32.8288 -6.5147 -0.0000 -0.0000 1.1652 8.7924 -26.9477 -4.0095 -7.1250 0.0000 -0.0000 -12.6921 3.3237 12.2440 0.0000 -0.0000 0.0000 92.4589 -19.2175 19.7197 -26.3445 37.5469 -9.0968 0.0000 0.0000 11.2575 -7.6030 -28.2792 3.6185 7.1250 -0.0000 -0.0000 24.9923 -56.6661 -7.4694
-1.1115 18.0573 5.8740 -2.7624 -4.7947 -4.0476 0.0000 0.0000 0.0000 -13.8466 -4.0645 23.6780 0.5250 -4.6435 -12.8944 -0.7520 17.2074 -15.1882 0.1147 -2.1835 -6.0130 0.0000 0.0000 0.0000 17.8418 -4.0474 16.3096 -0.1360 2.3768 -6.5482 -0.6845 -7.1024 -19.7925 -0.0879 -1.9127 5.2644 0.8451 1.4152 3.3277 0.6437 1.9383 -0.5719 0.0828 0.9593 -2.4461 0.2676 -1.1137 -11.8369 0.5974 -1.7224 19.1977 -0.0235 -0.7442 7.8825 -0.0000 0.0000 0.0000 -92.1490 11.6246 26.4826 21.4098 -32.3036 -6.2675 -0.0000 -0.0000 1.7297 8.6292 -27.0034 -3.9417 -7.1250 0.0000 -0.0000 -12.7905 3.2875 12.3527 -0.0000 0.0000 0.0000 92.5098 -19.2464 19.8785 -26.0623 37.2702 -8.9253 0.0000 0.0000 11.4168 -7.9452 -28.0714 3.7576 7.1250 -0.0000 -0.0000 24.5058 -56.5487 -7.2402
-1.1114 18.0565 5.8737 -2.7884 -4.8089 -4.0434 0.0000 0.0000 0.0000 -13.8486 -4.1774 23.7277 0.5244 -4.6408 -12.8870 -0.7491 17.2494 -15.3522 0.0997 -2.0358 -5.6047 0.0000 0.0000 0.0000 17.8697 -4.0322 16.3030 -0.1360 2.3765 -6.5474 -0.6850 -7.0852 -19.7839 -0.0884 -1.9174 5.2775 0.8667 1.4300 3.3229 0.6452 1.9588 -0.5689 0.0713 0.9692 -2.4397 0.2797 -1.0933 -11.8151 0.5892 -1.6949 19.2173 -0.0254 -0.7309 7.8848 -0.0000 0.0000 0.0000 -92.2829 11.5522 26.3526 20.9281 -31.7443 -6.0120 -0.0000 -0.0000 2.5467 8.4245 -26.9292 -3.8374 -7.1250 0.0000 -0.0000 -12.9092 3.3829 12.4504 -0.0000 0.0000 0.0000 92.5529 -19.3186 20.1242 -25.7720 36.9827 -8.7501 0.0000 0.0000 11.1363 -8.8896 -27.4911 4.1296 7.1250 -0.0000 -0.0000 23.1692 -56.2120 -6.6214
-1.1105 18.0560 5.8750 -2.8048 -4.8593 -4.0216 0.0000 0.0000 0.0000 -13.8653 -4.2801 23.7658 0.5231 -4.6351 -12.8707 -0.7431 17.2880 -15.5601 0.0837 -1.8660 -5.1353 0.0000 0.0000 0.0000 17.8971 -3.9792 16.2922 -0.1362 2.3788 -6.5539 -0.6819 -7.0946 -19.7598 -0.0838 -1.8669 5.1380 0.9033 1.4509 3.2721 0.6398 1.9873 -0.5584 0.0455 0.9831 -2.3987 0.2915 -1.0776 -11.7931 0.5969 -1.6771 19.2207 -0.0228 -0.7209 7.8820 0.0000 -0.0000 0.0000 -92.4186 11.4283 26.0977 20.3786 -31.0958 -5.7256 -0.0000 -0.0000 3.4764 8.1802 -26.8670 -3.7169 -7.1250 0.0000 -0.0000 -13.0519 3.4704 12.5741 0.0000 -0.0000 0.0000 92.5784 -19.3532 20.2171 -25.4877 36.6983 -8.5796 0.0000 0.0000 11.5812 -8.9564 -27.3118 4.1361 7.1250 -0.0000 -0.0000 22.9825 -56.0614 -6.4784
-1.1099 18.0564 5.8754 -2.7948 -4.8887 -3.9679 0.0000 0.0000 0.0000 -13.8816 -4.2977 23.7091 0.5209 -4.6254 -12.8431 -0.7401 17.2877 -15.6147 0.0851 -1.8813 -5.1777 0.0000 0.0000 0.0000 17.8989 -3.9365 16.2506 -0.1369 2.3844 -6.5692 -0.6799 -7.1128 -19.7548 -0.0786 -1.8086 4.9771 0.9058 1.4672 3.2125 0.6284 2.0080 -0.5626 0.0329 0.9935 -2.3690 0.2913 -1.0605 -11.7813 0.5993 -1.6536 19.2156 -0.0195 -0.7095 7.8781 -0.0000 -0.0000 0.0000 -92.5628 11.3033 25.7659 19.8271 -30.4334 -5.4435 -0.0000 -0.0000 4.4164 7.8915 -26.8879 -3.5870 -7.1250 0.0000 -0.0000 -13.2232 3.4812 12.7458 -0.0000 -0.0000 0.0000 92.5995 -19.3820 20.1155 -25.2393 36.4476 -8.4316 0.0000 0.0000 12.5930 -8.0363 -27.3072 3.7059 7.1250 -0.0000 -0.0000 23.8877 -55.8742 -6.6438
